<?xml version="1.0" encoding="UTF-8"?><svg xmlns="http://www.w3.org/2000/svg" width="180" height="180" viewBox="0 0 180 180" fill="none" version="1.2" baseProfile="tiny-ps"><title>Figma</title><desc>An image of the Figma logo</desc><rect width="180" height="180" fill="white"></rect><path d="M90.1019 89.8472C90.1019 79.694 98.3328 71.4629 108.486 71.4629C118.639 71.4629 126.87 79.694 126.87 89.8472C126.87 100.001 118.639 108.231 108.486 108.231C98.3328 108.231 90.1019 100.001 90.1019 89.8472Z" fill="#1ABCFE"></path><path d="M53.3334 126.616C53.3334 116.463 61.5643 108.231 71.7176 108.231H90.1019V126.616C90.1019 136.769 81.8711 145 71.7176 145C61.5643 145 53.3334 136.769 53.3334 126.616Z" fill="#0ACF83"></path><path d="M90.1019 34.6945V71.4629H108.486C118.64 71.4629 126.87 63.2321 126.87 53.0787C126.87 42.9254 118.64 34.6945 108.486 34.6945H90.1019Z" fill="#FF7262"></path><path d="M53.3334 53.0787C53.3334 63.2321 61.5643 71.4629 71.7176 71.4629H90.1019V34.6945H71.7176C61.5643 34.6945 53.3334 42.9254 53.3334 53.0787Z" fill="#F24E1E"></path><path d="M53.3334 89.8472C53.3334 100.001 61.5643 108.231 71.7176 108.231H90.1019V71.4629H71.7176C61.5643 71.4629 53.3334 79.694 53.3334 89.8472Z" fill="#A259FF"></path></svg>