<svg width="369" height="521" viewBox="0 0 369 521" fill="none" xmlns="http://www.w3.org/2000/svg">
<path d="M33.5812 479.011L0 102.358H369L335.383 478.952L184.274 520.844L33.5812 479.011Z" fill="#E44D26"/>
<path d="M184.5 488.824L306.603 454.972L335.331 133.155H184.5V488.824Z" fill="#F16529"/>
<path d="M184.5 272.85H123.372L119.15 225.546H184.5V179.351H184.34H68.665L69.7708 191.744L81.1246 319.045H184.5V272.85Z" fill="#EBEBEB"/>
<path d="M184.499 392.823L184.297 392.877L132.849 378.985L129.56 342.143H104.561H83.188L89.6599 414.675L184.287 440.945L184.499 440.886V392.823Z" fill="#EBEBEB"/>
<path d="M34.332 0H57.8077V23.1939H79.2823V0H102.759V70.2367H79.2833V46.7173H57.8087V70.2367H34.333L34.332 0Z" fill="white"/>
<path d="M133.63 23.2915H112.963V0H177.784V23.2915H157.108V70.2367H133.631L133.63 23.2915Z" fill="white"/>
<path d="M188.071 0H212.55L227.608 24.6791L242.65 0H267.138V70.2367H243.759V35.4235L227.608 60.3966H227.204L211.041 35.4235V70.2367H188.071V0Z" fill="white"/>
<path d="M278.822 0H302.305V47.0205H335.318V70.2367H278.822V0Z" fill="white"/>
<path d="M184.34 272.85V319.045H241.224L235.862 378.956L184.34 392.862V440.922L279.042 414.675L279.737 406.871L290.593 285.255L291.72 272.85H279.271H184.34Z" fill="white"/>
<path d="M184.34 179.351V208.042V225.433V225.546H295.775H295.923L296.85 215.163L298.955 191.744L300.059 179.351H184.34Z" fill="white"/>
</svg>
