<svg width="298" height="420" viewBox="0 0 298 420" fill="none" xmlns="http://www.w3.org/2000/svg">
<path d="M27.07 386.229L0 82.6069H297.45L270.352 386.18L148.543 419.95L27.07 386.229Z" fill="#EFC725"/>
<path d="M148.475 393.762L246.903 366.475L270.061 107.058H148.475V393.762Z" fill="#FBDE34"/>
<path d="M148.418 316.401L148.256 316.448L106.784 305.247L104.131 275.55H83.9809H66.752L71.969 334.018L148.246 355.194L148.418 355.145V316.401Z" fill="#EBEBEB"/>
<path d="M153.434 256.912V219.675H107.58L112.957 161.233L153.537 160.152L153.434 121.429H79.29L76.536 148.878L67.784 246.913L66.876 256.912H76.911H153.434Z" fill="#EBEBEB"/>
<path d="M153.182 160.204L153.345 160.158L194.016 162.607L197.467 201.054H217.618H234.848L228.334 129.108L153.354 121.412L153.182 121.46V160.204Z" fill="white"/>
<path d="M231.009 160.318L227.818 121.429H149.215V145.581V160.221V160.318H231.009Z" fill="white"/>
<path d="M148.289 219.693V256.929H194.143L189.821 305.222L148.289 316.434V355.176L224.629 334.018L225.188 327.727L233.94 229.692L234.848 219.693H224.813H148.289Z" fill="white"/>
<path d="M201.17 15.546H176.481L202.157 43.406V56.666H149.274V41.14H174.944L149.274 13.281V0H201.17V15.546Z" fill="white"/>
<path d="M139.856 0.0249023V56.6419H94.313V37.9279H120.926V0.0249023H139.854H139.856Z" fill="white"/>
</svg>
