<svg width="128" height="128" viewBox="0 0 128 128" fill="none" xmlns="http://www.w3.org/2000/svg">
<path d="M27.7578 20.421C20.4058 30.986 21.3208 44.733 26.9378 55.961L27.3488 56.759L27.6118 57.265L27.7758 57.556L28.0688 58.08C28.2428 58.387 28.4218 58.692 28.6048 58.999L28.9108 59.503C29.1138 59.829 29.3208 60.153 29.5328 60.476L29.7978 60.885C30.0908 61.322 30.3898 61.757 30.6988 62.186L30.7248 62.219L30.8768 62.424C31.1438 62.792 31.4188 63.156 31.6978 63.517L32.0068 63.91C32.2558 64.223 32.5088 64.533 32.7658 64.844L33.0558 65.19C33.4008 65.596 33.7538 66.002 34.1128 66.398L34.1338 66.42L34.1748 66.465C34.5258 66.848 34.8848 67.223 35.2498 67.598L35.5938 67.945C35.8758 68.229 36.1628 68.508 36.4518 68.786L36.8028 69.12C37.1898 69.484 37.5798 69.842 37.9788 70.19L37.9968 70.206L38.2018 70.38C38.5528 70.685 38.9098 70.985 39.2698 71.282L39.7118 71.635C40.0058 71.87 40.3028 72.103 40.6018 72.331L41.0788 72.692C41.4088 72.935 41.7418 73.174 42.0778 73.409L42.4408 73.667L42.5418 73.739C42.8598 73.959 43.1868 74.17 43.5118 74.381L43.9318 74.661C44.4318 74.976 44.9388 75.289 45.4508 75.591L45.8708 75.828C46.2478 76.045 46.6268 76.259 47.0108 76.467L47.6418 76.793L48.4578 77.217L48.6458 77.308L48.9798 77.469C49.4068 77.673 49.8378 77.874 50.2728 78.068L50.5458 78.19C51.0438 78.408 51.5468 78.617 52.0538 78.818L52.4218 78.962C52.8908 79.144 53.3668 79.321 53.8448 79.489L54.0238 79.551C54.5478 79.735 55.0778 79.904 55.6108 80.071L55.9938 80.185C56.5358 80.349 57.0728 80.543 57.6318 80.647C93.1848 87.13 103.512 59.283 103.512 59.283C94.8378 70.583 79.4428 73.563 64.8558 70.245C64.3028 70.12 63.7668 69.947 63.2278 69.789L62.8218 69.665C62.2961 69.5047 61.7733 69.3346 61.2538 69.155L61.0388 69.078C60.5756 68.9139 60.1149 68.7429 59.6568 68.565L59.2688 68.413C58.7678 68.215 58.2688 68.008 57.7768 67.793L57.4788 67.66C57.0567 67.4703 56.637 67.2753 56.2198 67.075L55.8558 66.9C55.5288 66.741 55.2058 66.572 54.8818 66.405L54.2328 66.064C53.8378 65.854 53.4508 65.634 53.0658 65.41L52.6718 65.191C52.1604 64.8881 51.6537 64.5774 51.1518 64.259L50.7418 63.986C50.3777 63.7522 50.0173 63.5125 49.6608 63.267L49.3118 63.022C48.9683 62.78 48.6276 62.534 48.2898 62.284L47.8368 61.941C47.5268 61.704 47.2188 61.465 46.9148 61.22L46.5038 60.89C46.1158 60.572 45.7328 60.25 45.3548 59.921L45.2288 59.816C44.8207 59.4561 44.418 59.09 44.0208 58.718L43.6808 58.39C43.3863 58.1117 43.0969 57.828 42.8128 57.539L42.4728 57.199C42.1108 56.829 41.7558 56.454 41.4078 56.073L41.3548 56.016C40.9869 55.6134 40.6268 55.2037 40.2748 54.787L39.9918 54.451C39.7284 54.1343 39.4694 53.8139 39.2148 53.49L38.9298 53.135C38.6248 52.741 38.3255 52.3426 38.0318 51.94C29.9338 40.893 27.0238 25.657 33.4968 13.145M50.5778 11.519C45.2618 19.169 45.5498 29.412 49.6978 37.502C50.3918 38.862 51.1773 40.1734 52.0488 41.427C52.8448 42.57 53.7288 43.928 54.7858 44.845C55.1688 45.267 55.5698 45.679 55.9788 46.083L56.2928 46.394C56.6898 46.779 57.0938 47.158 57.5108 47.526L57.5608 47.569L57.5728 47.581C58.0348 47.986 58.5118 48.375 58.9958 48.759L59.3188 49.011C59.8048 49.383 60.2998 49.749 60.8078 50.098L60.8508 50.131L61.5308 50.578L61.8528 50.791C62.2158 51.024 62.5828 51.25 62.9568 51.467L63.1128 51.559C63.4348 51.744 63.7608 51.926 64.0878 52.104L64.4348 52.284L65.1168 52.638L65.2198 52.685C65.6888 52.915 66.1608 53.138 66.6438 53.348L66.9578 53.478C67.3438 53.641 67.7328 53.801 68.1248 53.951L68.6248 54.135C68.9808 54.267 69.3368 54.388 69.6968 54.508L70.1808 54.663C70.6918 54.821 71.1978 55.022 71.7298 55.111C99.1798 59.658 105.517 38.523 105.517 38.523C99.8048 46.751 88.7418 50.676 76.9368 47.612C76.4151 47.4745 75.8966 47.3248 75.3818 47.163L74.9148 47.012C74.55 46.8946 74.1876 46.7699 73.8278 46.638L73.3368 46.455C72.9439 46.3038 72.5535 46.1461 72.1658 45.982L71.8508 45.849C71.3682 45.6386 70.8907 45.4165 70.4188 45.183L69.7008 44.818L69.2868 44.605C68.9808 44.439 68.6768 44.267 68.3778 44.091L68.1608 43.968C67.7895 43.7517 67.4227 43.5277 67.0608 43.296L66.7288 43.075L66.0168 42.603C65.5133 42.2536 65.0185 41.8918 64.5328 41.518L64.1988 41.254C59.0318 37.175 54.9358 31.599 52.9888 25.277C50.9478 18.72 51.3878 11.36 54.9238 5.38603M69.7708 4.86803C66.6368 9.48003 66.3288 15.209 68.5038 20.303C70.7968 25.71 75.4958 29.951 80.9808 31.963L81.6628 32.198L81.9628 32.294C82.2858 32.396 82.6068 32.514 82.9408 32.576C98.0978 35.505 102.209 24.799 103.303 23.222C99.7018 28.407 93.6498 29.652 86.2238 27.849C85.6163 27.694 85.0169 27.5088 84.4278 27.294C83.7017 27.0358 82.9894 26.74 82.2938 26.408C80.9746 25.7727 79.7215 25.0083 78.5528 24.126C71.9078 19.084 67.7808 9.46703 72.1168 1.63403" fill="#0868AC"/>
<path d="M66.3589 96.295H62.1329C62.0134 96.2996 61.8985 96.3426 61.8053 96.4178C61.7122 96.4929 61.6458 96.5961 61.6159 96.712L60.1159 103.652L58.6159 110.592C58.5864 110.708 58.5203 110.811 58.4272 110.886C58.3342 110.961 58.2194 111.004 58.0999 111.009H55.1089C52.1499 111.009 52.4919 108.962 53.0979 106.158L53.1159 106.073L53.1819 105.719L53.1939 105.653L53.3289 104.933L53.4739 104.162L53.6279 103.377L54.3099 100.045L54.9929 96.713C55.006 96.6621 55.0069 96.6088 54.9956 96.5575C54.9843 96.5062 54.9612 96.4582 54.928 96.4175C54.8949 96.3768 54.8526 96.3444 54.8047 96.3229C54.7567 96.3014 54.7044 96.2915 54.6519 96.294H50.3149C50.1955 96.2983 50.0807 96.3415 49.9879 96.4169C49.8952 96.4923 49.8295 96.5959 49.8009 96.712L48.8679 101.136L47.9359 105.561L47.9339 105.567L47.8479 105.979C46.7739 110.882 47.0579 115.559 52.8959 115.706L53.0659 115.709H62.2289C62.3484 115.704 62.4632 115.661 62.5562 115.586C62.6493 115.511 62.7154 115.408 62.7449 115.292L64.7209 106.003L66.6969 96.713C66.7459 96.483 66.5939 96.296 66.3589 96.295ZM21.1029 96.246H16.4629C16.3431 96.2506 16.2278 96.2935 16.1341 96.3684C16.0403 96.4432 15.973 96.5461 15.9419 96.662L15.5019 98.604L15.0619 100.546C15.0109 100.775 15.1599 100.962 15.3949 100.962H20.0709C20.1907 100.958 20.3058 100.915 20.3991 100.839C20.4925 100.764 20.559 100.661 20.5889 100.545L21.0139 98.604L21.4389 96.663C21.4879 96.434 21.3379 96.246 21.1029 96.246ZM19.7569 102.29H15.0799C14.9601 102.295 14.8449 102.338 14.7512 102.413C14.6575 102.487 14.5901 102.59 14.5589 102.706L13.9019 105.616L13.2459 108.525L13.0629 109.359L12.4319 112.329L11.8019 115.3C11.7529 115.529 11.6519 115.899 11.5769 116.121C11.5769 116.121 10.7029 118.721 9.23393 118.691L9.04993 118.687L7.77893 118.664C7.65953 118.667 7.54319 118.708 7.44886 118.781C7.35454 118.854 7.28621 118.956 7.25393 119.071L6.76893 121.11L6.28493 123.148C6.22993 123.376 6.37793 123.564 6.61093 123.568C7.44393 123.578 9.30993 123.599 10.4389 123.599C14.1079 123.599 16.0429 121.566 17.2819 115.716L18.7329 109.002L20.0939 102.705C20.1429 102.478 19.9909 102.29 19.7569 102.29ZM105.874 100.716L105.68 99.915L105.489 99.095L105.392 98.681C105.012 97.204 103.897 96.353 101.475 96.353L97.7049 96.349L94.2329 96.344H90.3259C90.2065 96.3484 90.0918 96.3914 89.9989 96.4666C89.906 96.5418 89.8401 96.6451 89.8109 96.761L89.6379 97.577L89.4339 98.541L89.3769 98.812L87.6179 107.052L85.9479 114.874C85.8979 115.104 85.8819 115.386 85.9099 115.5C85.9379 115.615 86.3889 115.709 86.6229 115.709H90.1469C90.3819 115.709 90.6789 115.667 90.8069 115.615C90.9349 115.563 91.1239 115.102 91.1709 114.873L91.7969 111.774L92.4239 108.674L92.4249 108.669L92.5089 108.256L93.2689 104.696L93.9399 101.552C93.9695 101.436 94.0356 101.333 94.1284 101.258C94.2211 101.183 94.3357 101.14 94.4549 101.135L105.544 101.13C105.779 101.132 105.927 100.945 105.874 100.716ZM120.149 93.476L119.295 93.479H115.746C115.616 93.4863 115.489 93.5216 115.374 93.5825C115.259 93.6435 115.158 93.7285 115.079 93.832L107.23 105.33C107.098 105.524 106.947 105.496 106.895 105.268L106.317 102.735C106.286 102.619 106.218 102.516 106.124 102.441C106.03 102.366 105.915 102.323 105.795 102.319H100.75C100.515 102.319 100.376 102.503 100.44 102.728L102.701 110.649C102.765 110.875 102.77 111.245 102.712 111.473L101.727 115.306C101.668 115.534 101.812 115.719 102.047 115.719H107.034C107.155 115.714 107.271 115.672 107.366 115.598C107.461 115.524 107.531 115.422 107.566 115.306L108.552 111.473C108.63 111.203 108.753 110.948 108.915 110.718L121.657 93.807C121.799 93.619 121.722 93.466 121.488 93.468L120.149 93.476ZM80.0629 103.395V103.391C80.0456 103.512 79.9859 103.622 79.8945 103.703C79.8031 103.784 79.6859 103.83 79.5639 103.832H73.1669C72.9449 103.832 72.8329 103.682 72.8659 103.496L72.8719 103.481L72.8679 103.483L72.8709 103.462L72.8999 103.353C73.5109 101.729 74.7549 100.663 77.0939 100.663C79.7279 100.662 80.2419 101.948 80.0629 103.395ZM78.1859 96.011C69.9749 96.011 68.0289 100.995 66.9369 106.026C65.8459 111.154 65.9389 115.947 74.4369 115.947H75.4669L75.7229 115.946H75.7829L76.8029 115.943H76.8209C79.0649 115.934 81.3159 115.917 82.2269 115.91C82.3456 115.904 82.4593 115.86 82.5509 115.784C82.6426 115.709 82.7075 115.605 82.7359 115.49L83.0799 113.809L83.1469 113.482L83.5569 111.476C83.57 111.425 83.5709 111.372 83.5597 111.321C83.5484 111.269 83.5252 111.221 83.4921 111.181C83.4589 111.14 83.4166 111.108 83.3686 111.086C83.3207 111.065 83.2684 111.055 83.2159 111.058H75.5769C72.5379 111.058 71.6359 110.251 71.9689 107.877H84.1799L84.1789 107.878L84.1869 107.877C84.2835 107.873 84.3769 107.841 84.4558 107.785C84.5347 107.729 84.5959 107.652 84.6319 107.562L84.6609 107.456L84.6599 107.457C86.4729 100.618 85.9529 96.012 78.1859 96.011ZM39.3759 103.369L39.2599 103.778L38.3379 107.047L37.4159 110.314C37.3782 110.43 37.306 110.531 37.2089 110.605C37.1118 110.678 36.9946 110.72 36.8729 110.725H31.9929C28.2909 110.725 27.3889 107.829 28.2909 103.559C29.1919 99.191 30.9589 96.476 34.6029 96.201C39.5829 95.825 40.5789 99.327 39.3759 103.369ZM42.7239 110.474C42.7239 110.474 45.0249 104.886 45.5469 101.66C46.2599 97.341 44.0969 91.075 35.7429 91.075C27.4369 91.075 23.8289 97.056 22.4529 103.559C21.0769 110.109 22.8799 115.852 31.1389 115.805L37.6549 115.781L43.7439 115.759C43.8646 115.753 43.9806 115.71 44.0761 115.636C44.1716 115.562 44.242 115.46 44.2779 115.345L45.3389 111.299C45.3979 111.071 45.2549 110.885 45.0199 110.883L44.0029 110.877L42.9859 110.871C42.7869 110.87 42.6729 110.74 42.6969 110.569L42.7239 110.474ZM83.8439 106.733C83.844 106.77 83.8368 106.806 83.8228 106.84C83.8088 106.874 83.7882 106.905 83.7623 106.931C83.7363 106.957 83.7055 106.978 83.6715 106.992C83.6376 107.006 83.6012 107.013 83.5644 107.013C83.5277 107.014 83.4912 107.006 83.4572 106.992C83.4232 106.978 83.3923 106.958 83.3663 106.932C83.3402 106.906 83.3196 106.875 83.3054 106.841C83.2913 106.807 83.284 106.771 83.2839 106.734C83.2838 106.66 83.3132 106.588 83.3656 106.536C83.418 106.483 83.4892 106.454 83.5634 106.453C83.6377 106.453 83.709 106.483 83.7616 106.535C83.8142 106.588 83.8438 106.659 83.8439 106.733Z" fill="white"/>
</svg>
